# xmcd CD database file
#
# Track frame offsets:
#	150
#	21200
#	36995
#	61032
#	85357
#	86957
#	141562
#	170437
#	187990
#	188777
#	207757
#	236787
#
# Disc length: 3291 seconds
#
# Revision: 0
# Processed by: cddbd v1.5.1PL0 Copyright (c) Steve Scherf et al.
# Submitted via: CDex 1.51
#
DISCID=a80cd90c
DTITLE=Demi Semi Quaver - Demi Semi Quaver
DYEAR=1900
DGENRE=Avantgarde
TTITLE0=RECREATION
TTITLE1=LOVE MANIAC
TTITLE2=FUNDAMENTARHYTHM
TTITLE3=BLACK MILK
TTITLE4=P+P
TTITLE5=A*MERICA
TTITLE6=DIVA -OPERA SEX NOX-
TTITLE7=第二魔術
TTITLE8=S+P
TTITLE9=ロックの隠れ家
TTITLE10=<S>MASH ROOM
TTITLE11=The door was always part of the wall and "key"
EXTD=
EXTT0=
EXTT1=
EXTT2=
EXTT3=
EXTT4=
EXTT5=
EXTT6=
EXTT7=
EXTT8=
EXTT9=
EXTT10=
EXTT11=
PLAYORDER=
